<svg width="1200" height="320" viewBox="0 0 1200 320" fill="none" xmlns="http://www.w3.org/2000/svg">
  <defs>
    <linearGradient id="bg" x1="0" y1="0" x2="1200" y2="320" gradientUnits="userSpaceOnUse">
      <stop stop-color="#FFFFFF"/>
      <stop offset="0.55" stop-color="#F8FAFC"/>
      <stop offset="1" stop-color="#F1F5F9"/>
    </linearGradient>
    <linearGradient id="accent" x1="0" y1="0" x2="1" y2="1">
      <stop stop-color="#14B8A6"/>
      <stop offset="1" stop-color="#F97316"/>
    </linearGradient>
  </defs>

  <rect width="1200" height="320" rx="24" fill="url(#bg)"/>

  <circle cx="1060" cy="42" r="94" fill="#14B8A6" opacity="0.10"/>
  <circle cx="920" cy="264" r="122" fill="#F97316" opacity="0.08"/>
  <circle cx="88" cy="36" r="54" fill="#14B8A6" opacity="0.08"/>

  <path d="M0 76H1200" stroke="#E2E8F0" stroke-width="1"/>
  <path d="M0 156H1200" stroke="#E2E8F0" stroke-width="1"/>
  <path d="M0 236H1200" stroke="#E2E8F0" stroke-width="1"/>
  <path d="M180 0V320" stroke="#E2E8F0" stroke-width="1"/>
  <path d="M420 0V320" stroke="#E2E8F0" stroke-width="1"/>
  <path d="M660 0V320" stroke="#E2E8F0" stroke-width="1"/>
  <path d="M900 0V320" stroke="#E2E8F0" stroke-width="1"/>

  <rect x="54" y="54" width="76" height="10" rx="5" fill="#14B8A6" opacity="0.9"/>
  <rect x="54" y="78" width="164" height="10" rx="5" fill="#CBD5E1"/>
  <rect x="54" y="96" width="128" height="10" rx="5" fill="#CBD5E1"/>

  <text x="54" y="168" fill="#0F172A" font-size="54" font-weight="700" font-family="Segoe UI, Arial, sans-serif">Pavan Sai R</text>
  <text x="54" y="206" fill="#475569" font-size="22" font-weight="500" font-family="Segoe UI, Arial, sans-serif">AI/ML Engineer  •  Agentic AI  •  RAG  •  Full Stack</text>
  <text x="54" y="246" fill="#334155" font-size="20" font-weight="400" font-family="Segoe UI, Arial, sans-serif">Building grounded AI systems that are observable, useful, and production-ready.</text>

  <rect x="820" y="72" width="280" height="42" rx="21" fill="#FFFFFF" stroke="#E2E8F0"/>
  <text x="852" y="99" fill="#0F172A" font-size="18" font-weight="600" font-family="Segoe UI, Arial, sans-serif">AGENT SYSTEMS</text>

  <rect x="784" y="128" width="316" height="42" rx="21" fill="#FFFFFF" stroke="#E2E8F0"/>
  <text x="816" y="155" fill="#0F172A" font-size="18" font-weight="600" font-family="Segoe UI, Arial, sans-serif">RETRIEVAL AND KNOWLEDGE</text>

  <rect x="834" y="184" width="266" height="42" rx="21" fill="#FFFFFF" stroke="#E2E8F0"/>
  <text x="866" y="211" fill="#0F172A" font-size="18" font-weight="600" font-family="Segoe UI, Arial, sans-serif">FULL-STACK AI</text>

  <rect x="880" y="240" width="220" height="42" rx="21" fill="#FFFFFF" stroke="#E2E8F0"/>
  <text x="912" y="267" fill="#0F172A" font-size="18" font-weight="600" font-family="Segoe UI, Arial, sans-serif">CLOUD DELIVERY</text>

  <rect x="54" y="270" width="170" height="6" rx="3" fill="url(#accent)"/>
</svg>
